<mxfile host="app.diagrams.net" agent="Mozilla/5.0 (Windows NT 10.0; Win64; x64) AppleWebKit/537.36 (KHTML, like Gecko) Chrome/137.0.0.0 Safari/537.36 Edg/137.0.0.0" version="26.2.14">
  <diagram name="Page-1" id="7bTmnAXek1JWlI7TwWE4">
    <mxGraphModel dx="617" dy="347" grid="1" gridSize="1" guides="1" tooltips="1" connect="1" arrows="1" fold="1" page="1" pageScale="1" pageWidth="1169" pageHeight="827" background="none" math="0" shadow="0">
      <root>
        <mxCell id="0" />
        <mxCell id="1" parent="0" />
        <mxCell id="ZedA4VMdX3rfLIul-dvv-466" value="" style="group" parent="1" vertex="1" connectable="0">
          <mxGeometry x="58" y="454" width="430.11" height="222" as="geometry" />
        </mxCell>
        <mxCell id="ZedA4VMdX3rfLIul-dvv-381" value="OP&lt;div&gt;Code&lt;/div&gt;" style="rounded=1;whiteSpace=wrap;html=1;arcSize=4;fillColor=#E6E6E6;" parent="ZedA4VMdX3rfLIul-dvv-466" vertex="1">
          <mxGeometry x="25.110000000000014" y="38" width="70" height="35" as="geometry" />
        </mxCell>
        <mxCell id="ZedA4VMdX3rfLIul-dvv-382" value="Length" style="rounded=1;whiteSpace=wrap;html=1;arcSize=4;fillColor=#E6E6E6;" parent="ZedA4VMdX3rfLIul-dvv-466" vertex="1">
          <mxGeometry x="95.11000000000001" y="38" width="70" height="35" as="geometry" />
        </mxCell>
        <mxCell id="ZedA4VMdX3rfLIul-dvv-383" value="ID" style="rounded=1;whiteSpace=wrap;html=1;arcSize=4;horizontal=1;fillColor=#D5E8D4;" parent="ZedA4VMdX3rfLIul-dvv-466" vertex="1">
          <mxGeometry x="165.11" y="38" width="50" height="35" as="geometry" />
        </mxCell>
        <mxCell id="ZedA4VMdX3rfLIul-dvv-385" value="RTR" style="rounded=1;whiteSpace=wrap;html=1;arcSize=4;horizontal=0;fillColor=#D5E8D4;" parent="ZedA4VMdX3rfLIul-dvv-466" vertex="1">
          <mxGeometry x="215.11" y="38" width="20" height="35" as="geometry" />
        </mxCell>
        <mxCell id="ZedA4VMdX3rfLIul-dvv-386" value="IDE" style="rounded=1;whiteSpace=wrap;html=1;arcSize=4;horizontal=0;fillColor=#D5E8D4;" parent="ZedA4VMdX3rfLIul-dvv-466" vertex="1">
          <mxGeometry x="235.11" y="38" width="20" height="35" as="geometry" />
        </mxCell>
        <mxCell id="ZedA4VMdX3rfLIul-dvv-387" value="Data&lt;br&gt;Length" style="rounded=1;whiteSpace=wrap;html=1;arcSize=4;horizontal=1;fillColor=#FFF2CC;" parent="ZedA4VMdX3rfLIul-dvv-466" vertex="1">
          <mxGeometry x="255" y="38" width="41" height="35" as="geometry" />
        </mxCell>
        <mxCell id="ZedA4VMdX3rfLIul-dvv-388" value="Data" style="rounded=1;whiteSpace=wrap;html=1;arcSize=4;horizontal=1;fillColor=#D5E8D4;" parent="ZedA4VMdX3rfLIul-dvv-466" vertex="1">
          <mxGeometry x="296" y="38" width="100" height="35" as="geometry" />
        </mxCell>
        <mxCell id="ZedA4VMdX3rfLIul-dvv-389" value="SOF" style="rounded=1;whiteSpace=wrap;html=1;arcSize=4;horizontal=0;fillColor=#f5f5f5;fontColor=#333333;strokeColor=#666666;opacity=70;textOpacity=70;" parent="ZedA4VMdX3rfLIul-dvv-466" vertex="1">
          <mxGeometry y="138" width="20" height="35" as="geometry" />
        </mxCell>
        <mxCell id="ZedA4VMdX3rfLIul-dvv-391" value="RTR" style="rounded=1;whiteSpace=wrap;html=1;arcSize=4;horizontal=0;fillColor=#D5E8D4;" parent="ZedA4VMdX3rfLIul-dvv-466" vertex="1">
          <mxGeometry x="70" y="138" width="20" height="35" as="geometry" />
        </mxCell>
        <mxCell id="ZedA4VMdX3rfLIul-dvv-392" value="IDE" style="rounded=1;whiteSpace=wrap;html=1;arcSize=4;horizontal=0;fillColor=#D5E8D4;" parent="ZedA4VMdX3rfLIul-dvv-466" vertex="1">
          <mxGeometry x="90" y="138" width="20" height="35" as="geometry" />
        </mxCell>
        <mxCell id="ZedA4VMdX3rfLIul-dvv-393" value="ID" style="rounded=1;whiteSpace=wrap;html=1;arcSize=4;horizontal=1;fillColor=#D5E8D4;" parent="ZedA4VMdX3rfLIul-dvv-466" vertex="1">
          <mxGeometry x="20" y="138" width="50" height="35" as="geometry" />
        </mxCell>
        <mxCell id="ZedA4VMdX3rfLIul-dvv-395" value="DLC" style="rounded=1;whiteSpace=wrap;html=1;arcSize=4;horizontal=1;fillColor=#FFF2CC;" parent="ZedA4VMdX3rfLIul-dvv-466" vertex="1">
          <mxGeometry x="130" y="138" width="40" height="35" as="geometry" />
        </mxCell>
        <mxCell id="ZedA4VMdX3rfLIul-dvv-396" value="PAYLOAD" style="rounded=1;whiteSpace=wrap;html=1;arcSize=4;horizontal=1;fillColor=#D5E8D4;" parent="ZedA4VMdX3rfLIul-dvv-466" vertex="1">
          <mxGeometry x="170" y="138" width="100" height="35" as="geometry" />
        </mxCell>
        <mxCell id="ZedA4VMdX3rfLIul-dvv-397" value="CRC" style="rounded=1;whiteSpace=wrap;html=1;arcSize=4;horizontal=1;fillColor=#CCCCCC;opacity=50;textOpacity=50;" parent="ZedA4VMdX3rfLIul-dvv-466" vertex="1">
          <mxGeometry x="270.11" y="138" width="50" height="35" as="geometry" />
        </mxCell>
        <mxCell id="ZedA4VMdX3rfLIul-dvv-398" value="DEL" style="rounded=1;whiteSpace=wrap;html=1;arcSize=4;horizontal=0;fillColor=#CCCCCC;opacity=50;textOpacity=50;" parent="ZedA4VMdX3rfLIul-dvv-466" vertex="1">
          <mxGeometry x="320.11" y="138" width="20" height="35" as="geometry" />
        </mxCell>
        <mxCell id="ZedA4VMdX3rfLIul-dvv-399" value="ACK" style="rounded=1;whiteSpace=wrap;html=1;arcSize=4;horizontal=0;fillColor=#CCCCCC;opacity=50;textOpacity=50;" parent="ZedA4VMdX3rfLIul-dvv-466" vertex="1">
          <mxGeometry x="340.11" y="138" width="20" height="35" as="geometry" />
        </mxCell>
        <mxCell id="ZedA4VMdX3rfLIul-dvv-400" value="DEL" style="rounded=1;whiteSpace=wrap;html=1;arcSize=4;horizontal=0;fillColor=#CCCCCC;opacity=50;textOpacity=50;" parent="ZedA4VMdX3rfLIul-dvv-466" vertex="1">
          <mxGeometry x="360.11" y="138" width="20" height="35" as="geometry" />
        </mxCell>
        <mxCell id="ZedA4VMdX3rfLIul-dvv-401" value="EOF" style="rounded=1;whiteSpace=wrap;html=1;arcSize=4;horizontal=1;fillColor=#f5f5f5;fontColor=#333333;strokeColor=#666666;opacity=70;textOpacity=70;" parent="ZedA4VMdX3rfLIul-dvv-466" vertex="1">
          <mxGeometry x="380.11" y="138" width="50" height="35" as="geometry" />
        </mxCell>
        <mxCell id="ZedA4VMdX3rfLIul-dvv-410" value="r" style="rounded=1;whiteSpace=wrap;html=1;arcSize=4;horizontal=0;fillColor=#F19C99;" parent="ZedA4VMdX3rfLIul-dvv-466" vertex="1">
          <mxGeometry x="110" y="138" width="20" height="35" as="geometry" />
        </mxCell>
        <mxCell id="ZedA4VMdX3rfLIul-dvv-411" value="" style="endArrow=none;dashed=1;html=1;rounded=0;entryX=0;entryY=1;entryDx=0;entryDy=0;" parent="ZedA4VMdX3rfLIul-dvv-466" edge="1">
          <mxGeometry width="50" height="50" relative="1" as="geometry">
            <mxPoint x="1" y="221" as="sourcePoint" />
            <mxPoint x="1" y="173" as="targetPoint" />
          </mxGeometry>
        </mxCell>
        <mxCell id="ZedA4VMdX3rfLIul-dvv-412" value="" style="endArrow=none;dashed=1;html=1;rounded=0;entryX=0;entryY=1;entryDx=0;entryDy=0;" parent="ZedA4VMdX3rfLIul-dvv-466" edge="1">
          <mxGeometry width="50" height="50" relative="1" as="geometry">
            <mxPoint x="429.11" y="222" as="sourcePoint" />
            <mxPoint x="429.11" y="174" as="targetPoint" />
          </mxGeometry>
        </mxCell>
        <mxCell id="ZedA4VMdX3rfLIul-dvv-413" value="" style="endArrow=classic;startArrow=classic;html=1;rounded=0;" parent="ZedA4VMdX3rfLIul-dvv-466" edge="1">
          <mxGeometry width="50" height="50" relative="1" as="geometry">
            <mxPoint x="2" y="220" as="sourcePoint" />
            <mxPoint x="429" y="220" as="targetPoint" />
          </mxGeometry>
        </mxCell>
        <mxCell id="ZedA4VMdX3rfLIul-dvv-415" value="" style="endArrow=none;dashed=1;html=1;rounded=0;entryX=0;entryY=1;entryDx=0;entryDy=0;strokeColor=#999999;" parent="ZedA4VMdX3rfLIul-dvv-466" edge="1">
          <mxGeometry width="50" height="50" relative="1" as="geometry">
            <mxPoint x="20" y="202" as="sourcePoint" />
            <mxPoint x="20" y="171" as="targetPoint" />
          </mxGeometry>
        </mxCell>
        <mxCell id="ZedA4VMdX3rfLIul-dvv-416" value="" style="endArrow=none;dashed=1;html=1;rounded=0;entryX=0;entryY=1;entryDx=0;entryDy=0;strokeColor=#999999;" parent="ZedA4VMdX3rfLIul-dvv-466" edge="1">
          <mxGeometry width="50" height="50" relative="1" as="geometry">
            <mxPoint x="90" y="202" as="sourcePoint" />
            <mxPoint x="90" y="171" as="targetPoint" />
          </mxGeometry>
        </mxCell>
        <mxCell id="ZedA4VMdX3rfLIul-dvv-417" value="" style="endArrow=none;dashed=1;html=1;rounded=0;entryX=0;entryY=1;entryDx=0;entryDy=0;strokeColor=#999999;" parent="ZedA4VMdX3rfLIul-dvv-466" edge="1">
          <mxGeometry width="50" height="50" relative="1" as="geometry">
            <mxPoint x="170" y="202" as="sourcePoint" />
            <mxPoint x="170" y="171" as="targetPoint" />
          </mxGeometry>
        </mxCell>
        <mxCell id="ZedA4VMdX3rfLIul-dvv-418" value="" style="endArrow=none;dashed=1;html=1;rounded=0;entryX=0;entryY=1;entryDx=0;entryDy=0;strokeColor=#999999;" parent="ZedA4VMdX3rfLIul-dvv-466" edge="1">
          <mxGeometry width="50" height="50" relative="1" as="geometry">
            <mxPoint x="269.71000000000004" y="202" as="sourcePoint" />
            <mxPoint x="269.71000000000004" y="171" as="targetPoint" />
          </mxGeometry>
        </mxCell>
        <mxCell id="ZedA4VMdX3rfLIul-dvv-419" value="" style="endArrow=none;dashed=1;html=1;rounded=0;entryX=0.085;entryY=0.249;entryDx=0;entryDy=0;entryPerimeter=0;strokeColor=#999999;" parent="ZedA4VMdX3rfLIul-dvv-466" target="ZedA4VMdX3rfLIul-dvv-429" edge="1">
          <mxGeometry width="50" height="50" relative="1" as="geometry">
            <mxPoint x="339.88000000000005" y="202" as="sourcePoint" />
            <mxPoint x="339.88000000000005" y="171" as="targetPoint" />
          </mxGeometry>
        </mxCell>
        <mxCell id="ZedA4VMdX3rfLIul-dvv-421" value="" style="endArrow=classic;startArrow=classic;html=1;rounded=0;fontColor=#999999;strokeColor=#999999;" parent="ZedA4VMdX3rfLIul-dvv-466" edge="1">
          <mxGeometry width="50" height="50" relative="1" as="geometry">
            <mxPoint x="21" y="200" as="sourcePoint" />
            <mxPoint x="89" y="200" as="targetPoint" />
          </mxGeometry>
        </mxCell>
        <mxCell id="ZedA4VMdX3rfLIul-dvv-422" value="" style="endArrow=classic;startArrow=classic;html=1;rounded=0;fontColor=#999999;strokeColor=#999999;" parent="ZedA4VMdX3rfLIul-dvv-466" edge="1">
          <mxGeometry width="50" height="50" relative="1" as="geometry">
            <mxPoint x="91.11000000000001" y="200" as="sourcePoint" />
            <mxPoint x="169" y="200" as="targetPoint" />
          </mxGeometry>
        </mxCell>
        <mxCell id="ZedA4VMdX3rfLIul-dvv-423" value="" style="endArrow=classic;startArrow=classic;html=1;rounded=0;fontColor=#999999;strokeColor=#999999;" parent="ZedA4VMdX3rfLIul-dvv-466" edge="1">
          <mxGeometry width="50" height="50" relative="1" as="geometry">
            <mxPoint x="171.22000000000003" y="200" as="sourcePoint" />
            <mxPoint x="268" y="200" as="targetPoint" />
          </mxGeometry>
        </mxCell>
        <mxCell id="ZedA4VMdX3rfLIul-dvv-424" value="" style="endArrow=classic;startArrow=classic;html=1;rounded=0;fontColor=#999999;strokeColor=#999999;" parent="ZedA4VMdX3rfLIul-dvv-466" edge="1">
          <mxGeometry width="50" height="50" relative="1" as="geometry">
            <mxPoint x="271" y="200" as="sourcePoint" />
            <mxPoint x="339" y="200" as="targetPoint" />
          </mxGeometry>
        </mxCell>
        <mxCell id="ZedA4VMdX3rfLIul-dvv-425" value="" style="endArrow=classic;startArrow=classic;html=1;rounded=0;fontColor=#999999;strokeColor=#999999;" parent="ZedA4VMdX3rfLIul-dvv-466" edge="1">
          <mxGeometry width="50" height="50" relative="1" as="geometry">
            <mxPoint x="341.11" y="200" as="sourcePoint" />
            <mxPoint x="379" y="200" as="targetPoint" />
          </mxGeometry>
        </mxCell>
        <mxCell id="ZedA4VMdX3rfLIul-dvv-426" value="Standard CAN Data Frame" style="text;html=1;align=center;verticalAlign=middle;whiteSpace=wrap;rounded=0;fontSize=10;" parent="ZedA4VMdX3rfLIul-dvv-466" vertex="1">
          <mxGeometry x="22" y="208" width="384" height="12" as="geometry" />
        </mxCell>
        <mxCell id="ZedA4VMdX3rfLIul-dvv-427" value="Data Field" style="text;html=1;align=center;verticalAlign=middle;whiteSpace=wrap;rounded=0;fontSize=8;fontColor=#999999;" parent="ZedA4VMdX3rfLIul-dvv-466" vertex="1">
          <mxGeometry x="196.5" y="190" width="47" height="10" as="geometry" />
        </mxCell>
        <mxCell id="ZedA4VMdX3rfLIul-dvv-428" value="CRC Field" style="text;html=1;align=center;verticalAlign=middle;whiteSpace=wrap;rounded=0;fontSize=8;fontColor=#999999;" parent="ZedA4VMdX3rfLIul-dvv-466" vertex="1">
          <mxGeometry x="281" y="190" width="47" height="10" as="geometry" />
        </mxCell>
        <mxCell id="ZedA4VMdX3rfLIul-dvv-429" value="Acknowlege Field" style="text;html=1;align=center;verticalAlign=middle;whiteSpace=wrap;rounded=0;fontSize=8;fontColor=#999999;" parent="ZedA4VMdX3rfLIul-dvv-466" vertex="1">
          <mxGeometry x="336" y="186" width="47" height="10" as="geometry" />
        </mxCell>
        <mxCell id="ZedA4VMdX3rfLIul-dvv-430" value="" style="endArrow=none;dashed=1;html=1;rounded=0;entryX=0.083;entryY=0.5;entryDx=0;entryDy=0;entryPerimeter=0;strokeColor=#999999;" parent="ZedA4VMdX3rfLIul-dvv-466" edge="1">
          <mxGeometry width="50" height="50" relative="1" as="geometry">
            <mxPoint x="340" y="182" as="sourcePoint" />
            <mxPoint x="340" y="172" as="targetPoint" />
          </mxGeometry>
        </mxCell>
        <mxCell id="ZedA4VMdX3rfLIul-dvv-433" value="Control Field" style="text;html=1;align=center;verticalAlign=middle;whiteSpace=wrap;rounded=0;fontSize=8;fontColor=#999999;" parent="ZedA4VMdX3rfLIul-dvv-466" vertex="1">
          <mxGeometry x="106.22000000000003" y="190" width="47.89" height="10" as="geometry" />
        </mxCell>
        <mxCell id="ZedA4VMdX3rfLIul-dvv-434" value="Arbitration Field" style="text;html=1;align=center;verticalAlign=middle;whiteSpace=wrap;rounded=0;fontSize=8;fontColor=#999999;" parent="ZedA4VMdX3rfLIul-dvv-466" vertex="1">
          <mxGeometry x="33.00000000000003" y="185" width="47.89" height="10" as="geometry" />
        </mxCell>
        <mxCell id="ZedA4VMdX3rfLIul-dvv-435" value="" style="endArrow=none;dashed=1;html=1;rounded=0;strokeColor=#999999;" parent="ZedA4VMdX3rfLIul-dvv-466" edge="1">
          <mxGeometry width="50" height="50" relative="1" as="geometry">
            <mxPoint x="379.8800000000001" y="202" as="sourcePoint" />
            <mxPoint x="380" y="190" as="targetPoint" />
          </mxGeometry>
        </mxCell>
        <mxCell id="ZedA4VMdX3rfLIul-dvv-436" value="" style="endArrow=none;dashed=1;html=1;rounded=0;entryX=0.083;entryY=0.5;entryDx=0;entryDy=0;entryPerimeter=0;strokeColor=#999999;" parent="ZedA4VMdX3rfLIul-dvv-466" edge="1">
          <mxGeometry width="50" height="50" relative="1" as="geometry">
            <mxPoint x="380" y="182" as="sourcePoint" />
            <mxPoint x="380" y="172" as="targetPoint" />
          </mxGeometry>
        </mxCell>
        <mxCell id="ZedA4VMdX3rfLIul-dvv-437" value="" style="endArrow=none;dashed=1;html=1;rounded=0;strokeColor=#999999;" parent="ZedA4VMdX3rfLIul-dvv-466" edge="1">
          <mxGeometry width="50" height="50" relative="1" as="geometry">
            <mxPoint x="165.11" y="38" as="sourcePoint" />
            <mxPoint x="165" y="19" as="targetPoint" />
          </mxGeometry>
        </mxCell>
        <mxCell id="ZedA4VMdX3rfLIul-dvv-439" value="" style="endArrow=none;dashed=1;html=1;rounded=0;" parent="ZedA4VMdX3rfLIul-dvv-466" edge="1">
          <mxGeometry width="50" height="50" relative="1" as="geometry">
            <mxPoint x="25.110000000000014" y="38" as="sourcePoint" />
            <mxPoint x="25" y="2" as="targetPoint" />
          </mxGeometry>
        </mxCell>
        <mxCell id="ZedA4VMdX3rfLIul-dvv-441" value="" style="endArrow=classic;startArrow=classic;html=1;rounded=0;" parent="ZedA4VMdX3rfLIul-dvv-466" edge="1">
          <mxGeometry width="50" height="50" relative="1" as="geometry">
            <mxPoint x="26" y="12" as="sourcePoint" />
            <mxPoint x="395" y="12" as="targetPoint" />
          </mxGeometry>
        </mxCell>
        <mxCell id="ZedA4VMdX3rfLIul-dvv-442" value="&lt;b&gt;FMI-LS-BUS&lt;/b&gt; CAN Transmit Operation" style="text;html=1;align=center;verticalAlign=middle;whiteSpace=wrap;rounded=0;fontSize=10;" parent="ZedA4VMdX3rfLIul-dvv-466" vertex="1">
          <mxGeometry x="29" width="364" height="12" as="geometry" />
        </mxCell>
        <mxCell id="ZedA4VMdX3rfLIul-dvv-443" value="Operations Field" style="text;html=1;align=center;verticalAlign=middle;whiteSpace=wrap;rounded=0;fontSize=8;fontColor=#999999;" parent="ZedA4VMdX3rfLIul-dvv-466" vertex="1">
          <mxGeometry x="54" y="17" width="82" height="10" as="geometry" />
        </mxCell>
        <mxCell id="ZedA4VMdX3rfLIul-dvv-444" value="" style="endArrow=classic;startArrow=classic;html=1;rounded=0;fontColor=#999999;strokeColor=#999999;" parent="ZedA4VMdX3rfLIul-dvv-466" edge="1">
          <mxGeometry width="50" height="50" relative="1" as="geometry">
            <mxPoint x="26" y="27" as="sourcePoint" />
            <mxPoint x="163.11" y="27" as="targetPoint" />
          </mxGeometry>
        </mxCell>
        <mxCell id="ZedA4VMdX3rfLIul-dvv-445" value="" style="endArrow=none;dashed=1;html=1;rounded=0;" parent="ZedA4VMdX3rfLIul-dvv-466" edge="1">
          <mxGeometry width="50" height="50" relative="1" as="geometry">
            <mxPoint x="396.11" y="38" as="sourcePoint" />
            <mxPoint x="396" y="2" as="targetPoint" />
          </mxGeometry>
        </mxCell>
        <mxCell id="ZedA4VMdX3rfLIul-dvv-446" value="CAN Trasmit" style="text;html=1;align=center;verticalAlign=middle;whiteSpace=wrap;rounded=0;fontSize=8;fontColor=#999999;" parent="ZedA4VMdX3rfLIul-dvv-466" vertex="1">
          <mxGeometry x="238" y="17" width="82" height="10" as="geometry" />
        </mxCell>
        <mxCell id="ZedA4VMdX3rfLIul-dvv-447" value="" style="endArrow=classic;startArrow=classic;html=1;rounded=0;fontColor=#999999;strokeColor=#999999;" parent="ZedA4VMdX3rfLIul-dvv-466" edge="1">
          <mxGeometry width="50" height="50" relative="1" as="geometry">
            <mxPoint x="167" y="27" as="sourcePoint" />
            <mxPoint x="394" y="27" as="targetPoint" />
          </mxGeometry>
        </mxCell>
        <mxCell id="ZedA4VMdX3rfLIul-dvv-450" value="" style="endArrow=none;html=1;rounded=0;exitX=0.5;exitY=0;exitDx=0;exitDy=0;dashed=1;" parent="ZedA4VMdX3rfLIul-dvv-466" source="ZedA4VMdX3rfLIul-dvv-393" edge="1">
          <mxGeometry width="50" height="50" relative="1" as="geometry">
            <mxPoint x="52" y="134" as="sourcePoint" />
            <mxPoint x="45" y="129" as="targetPoint" />
          </mxGeometry>
        </mxCell>
        <mxCell id="ZedA4VMdX3rfLIul-dvv-451" value="" style="endArrow=none;html=1;rounded=0;exitX=0.5;exitY=0;exitDx=0;exitDy=0;dashed=1;" parent="ZedA4VMdX3rfLIul-dvv-466" edge="1">
          <mxGeometry width="50" height="50" relative="1" as="geometry">
            <mxPoint x="79.96000000000001" y="138" as="sourcePoint" />
            <mxPoint x="79.96000000000001" y="129" as="targetPoint" />
          </mxGeometry>
        </mxCell>
        <mxCell id="ZedA4VMdX3rfLIul-dvv-452" value="" style="endArrow=none;html=1;rounded=0;exitX=0.5;exitY=0;exitDx=0;exitDy=0;dashed=1;" parent="ZedA4VMdX3rfLIul-dvv-466" edge="1">
          <mxGeometry width="50" height="50" relative="1" as="geometry">
            <mxPoint x="99.95999999999998" y="138" as="sourcePoint" />
            <mxPoint x="99.95999999999998" y="129" as="targetPoint" />
          </mxGeometry>
        </mxCell>
        <mxCell id="ZedA4VMdX3rfLIul-dvv-453" value="" style="endArrow=none;html=1;rounded=0;exitX=0.5;exitY=0;exitDx=0;exitDy=0;dashed=1;" parent="ZedA4VMdX3rfLIul-dvv-466" edge="1">
          <mxGeometry width="50" height="50" relative="1" as="geometry">
            <mxPoint x="149" y="138" as="sourcePoint" />
            <mxPoint x="149" y="129" as="targetPoint" />
          </mxGeometry>
        </mxCell>
        <mxCell id="ZedA4VMdX3rfLIul-dvv-454" value="" style="endArrow=none;html=1;rounded=0;exitX=0.5;exitY=0;exitDx=0;exitDy=0;dashed=1;" parent="ZedA4VMdX3rfLIul-dvv-466" edge="1">
          <mxGeometry width="50" height="50" relative="1" as="geometry">
            <mxPoint x="204.94" y="138" as="sourcePoint" />
            <mxPoint x="204.94" y="129" as="targetPoint" />
          </mxGeometry>
        </mxCell>
        <mxCell id="ZedA4VMdX3rfLIul-dvv-455" value="" style="endArrow=none;html=1;rounded=0;exitX=0.5;exitY=0;exitDx=0;exitDy=0;dashed=1;" parent="ZedA4VMdX3rfLIul-dvv-466" edge="1">
          <mxGeometry width="50" height="50" relative="1" as="geometry">
            <mxPoint x="192" y="82" as="sourcePoint" />
            <mxPoint x="192" y="73" as="targetPoint" />
          </mxGeometry>
        </mxCell>
        <mxCell id="ZedA4VMdX3rfLIul-dvv-456" value="" style="endArrow=none;html=1;rounded=0;exitX=0.5;exitY=0;exitDx=0;exitDy=0;dashed=1;" parent="ZedA4VMdX3rfLIul-dvv-466" edge="1">
          <mxGeometry width="50" height="50" relative="1" as="geometry">
            <mxPoint x="225.02999999999997" y="82" as="sourcePoint" />
            <mxPoint x="225.02999999999997" y="73" as="targetPoint" />
          </mxGeometry>
        </mxCell>
        <mxCell id="ZedA4VMdX3rfLIul-dvv-457" value="" style="endArrow=none;html=1;rounded=0;exitX=0.5;exitY=0;exitDx=0;exitDy=0;dashed=1;" parent="ZedA4VMdX3rfLIul-dvv-466" edge="1">
          <mxGeometry width="50" height="50" relative="1" as="geometry">
            <mxPoint x="245.02999999999997" y="82" as="sourcePoint" />
            <mxPoint x="245.02999999999997" y="73" as="targetPoint" />
          </mxGeometry>
        </mxCell>
        <mxCell id="ZedA4VMdX3rfLIul-dvv-458" value="" style="endArrow=none;html=1;rounded=0;dashed=1;entryX=0.513;entryY=1.01;entryDx=0;entryDy=0;entryPerimeter=0;" parent="ZedA4VMdX3rfLIul-dvv-466" target="ZedA4VMdX3rfLIul-dvv-387" edge="1">
          <mxGeometry width="50" height="50" relative="1" as="geometry">
            <mxPoint x="276" y="86" as="sourcePoint" />
            <mxPoint x="275.44" y="73" as="targetPoint" />
          </mxGeometry>
        </mxCell>
        <mxCell id="ZedA4VMdX3rfLIul-dvv-459" value="" style="endArrow=none;html=1;rounded=0;exitX=0.5;exitY=0;exitDx=0;exitDy=0;dashed=1;" parent="ZedA4VMdX3rfLIul-dvv-466" edge="1">
          <mxGeometry width="50" height="50" relative="1" as="geometry">
            <mxPoint x="350.94000000000005" y="82" as="sourcePoint" />
            <mxPoint x="350.94000000000005" y="73" as="targetPoint" />
          </mxGeometry>
        </mxCell>
        <mxCell id="ZedA4VMdX3rfLIul-dvv-460" value="" style="endArrow=none;dashed=1;html=1;rounded=0;" parent="ZedA4VMdX3rfLIul-dvv-466" edge="1">
          <mxGeometry width="50" height="50" relative="1" as="geometry">
            <mxPoint x="45" y="129" as="sourcePoint" />
            <mxPoint x="192" y="82" as="targetPoint" />
          </mxGeometry>
        </mxCell>
        <mxCell id="ZedA4VMdX3rfLIul-dvv-461" value="" style="endArrow=none;dashed=1;html=1;rounded=0;" parent="ZedA4VMdX3rfLIul-dvv-466" edge="1">
          <mxGeometry width="50" height="50" relative="1" as="geometry">
            <mxPoint x="80" y="129" as="sourcePoint" />
            <mxPoint x="227" y="82" as="targetPoint" />
          </mxGeometry>
        </mxCell>
        <mxCell id="ZedA4VMdX3rfLIul-dvv-462" value="" style="endArrow=none;dashed=1;html=1;rounded=0;" parent="ZedA4VMdX3rfLIul-dvv-466" edge="1">
          <mxGeometry width="50" height="50" relative="1" as="geometry">
            <mxPoint x="100" y="129" as="sourcePoint" />
            <mxPoint x="247" y="82" as="targetPoint" />
          </mxGeometry>
        </mxCell>
        <mxCell id="ZedA4VMdX3rfLIul-dvv-463" value="" style="endArrow=none;dashed=1;html=1;rounded=0;" parent="ZedA4VMdX3rfLIul-dvv-466" edge="1">
          <mxGeometry width="50" height="50" relative="1" as="geometry">
            <mxPoint x="205" y="129" as="sourcePoint" />
            <mxPoint x="352" y="82" as="targetPoint" />
          </mxGeometry>
        </mxCell>
        <mxCell id="ZedA4VMdX3rfLIul-dvv-464" value="" style="endArrow=none;dashed=1;html=1;rounded=0;" parent="ZedA4VMdX3rfLIul-dvv-466" edge="1">
          <mxGeometry width="50" height="50" relative="1" as="geometry">
            <mxPoint x="149.61" y="128" as="sourcePoint" />
            <mxPoint x="276" y="86" as="targetPoint" />
          </mxGeometry>
        </mxCell>
        <mxCell id="ZedA4VMdX3rfLIul-dvv-465" value="transformed" style="edgeLabel;html=1;align=center;verticalAlign=middle;resizable=0;points=[];rotation=341.75;fontSize=8;" parent="ZedA4VMdX3rfLIul-dvv-464" vertex="1" connectable="0">
          <mxGeometry x="0.3603" relative="1" as="geometry">
            <mxPoint x="-13" y="10" as="offset" />
          </mxGeometry>
        </mxCell>
      </root>
    </mxGraphModel>
  </diagram>
</mxfile>
